<?xml version="1.0" encoding="UTF-8"?>
<svg width="1024" height="1024" version="1.1" viewBox="0 0 1024 1024" xmlns="http://www.w3.org/2000/svg" xmlns:cc="http://creativecommons.org/ns#" xmlns:dc="http://purl.org/dc/elements/1.1/" xmlns:rdf="http://www.w3.org/1999/02/22-rdf-syntax-ns#" xmlns:xlink="http://www.w3.org/1999/xlink">
 <metadata>
  <rdf:RDF>
   <cc:Work rdf:about="">
    <dc:format>image/svg+xml</dc:format>
    <dc:type rdf:resource="http://purl.org/dc/dcmitype/StillImage"/>
    <dc:title>79E2CD04-F9A8-4CD3-845B-A50937E8C848</dc:title>
   </cc:Work>
  </rdf:RDF>
 </metadata>
 <title>79E2CD04-F9A8-4CD3-845B-A50937E8C848</title>
 <defs>
  <path id="path-1" d="m5.0991 11.329c-0.00937 0.0123-0.00521 0.02828-0.014574 0.04058-0.19571 0.23116-0.51114 0.23116-0.70581 0l-0.011451-0.01353c-0.01041-0.0098-0.023943-0.0061-0.033312-0.01598-0.00937-0.0123-0.00625-0.02828-0.014574-0.04058l-4.1734-4.9281c-0.19467-0.23116-0.19467-0.60371 0-0.83364 0.19571-0.22993 0.5101-0.22993 0.70581 0l3.8195 4.51 7.9606-9.4012c0.2082-0.24591 0.54549-0.24591 0.75474 0 0.20924 0.24591 0.2082 0.64552 0 0.89266z"/>
  <path id="path-3" d="m19.812 19.812c-0.25014 0.25014-0.65412 0.25014-0.90426 0l-3.552-3.552c0.32018-0.28266 0.62285-0.58408 0.90426-0.90426l3.552 3.552c0.25014 0.25014 0.25014 0.65412 0 0.90426zm-11.057-2.3025c-4.8352 0-8.7549-3.921-8.7549-8.7549 0-4.8365 3.9197-8.7549 8.7549-8.7549 4.8352 0 8.7549 3.9197 8.7549 8.7549 0 4.834-3.9197 8.7549-8.7549 8.7549zm0-16.259c-4.1448 0-7.5042 3.3606-7.5042 7.5042 0 4.1436 3.3594 7.5042 7.5042 7.5042 4.1436 0 7.5042-3.3594 7.5042-7.5042 0-4.1448-3.3606-7.5042-7.5042-7.5042z"/>
 </defs>
 <g id="mobile" transform="matrix(9.2305 0 0 9.2158 -33.033 -29.329)" fill="none" fill-rule="evenodd">
  <g id="01-Cars-scout-/-mobile" transform="translate(-128,-590)">
   <g transform="translate(32,590)">
    <g id="icon-/-auto-/-busqueda" transform="translate(96)">
     <g transform="translate(4,26)">
      <g transform="translate(.3078)">
       <g transform="translate(.3078 .3078)">
        <g transform="matrix(-1,0,0,1,109.9,32.4)">
         <path d="m39.119 42.708s-1.1998 1.3675-1.9121 2.7719c-0.71235 1.4044 2.2495 1.2935 2.2495 1.2935l1.0123-2.3284z" fill="#fff"/>
         <path d="m20.909 13.059s-3.1577-0.97589-4.511 1.6395c-0.8328 1.6395 1.0757 2.9277 1.0757 2.9277l1.3186-0.19518z" fill="#bcccea"/>
         <path d="m108.59 53.894c0 0.95299-24.286 1.6942-54.296 1.6942-29.972 0-54.296-0.77616-54.296-1.6942 0-0.91769 24.286-1.6942 54.296-1.6942 30.009-0.0353 54.296 0.74121 54.296 1.6942" fill="#0a4080" opacity=".72359"/>
         <path d="m99.413 40.336s1.7683-3.2838 0.79026-6.4523c-0.97842-3.1311-4.9297-5.7269-4.9297-5.7269l-29.879-1.7181-11.402 16.57-48.545-4.8488s-0.82789 3.0162-0.71537 5.4215c0.11327 2.4053 0.41432 10.614 9.9723 10.614 6.8117 0 8.8814-4.8488 8.8814-4.8488l19.53 0.03818s1.0917 4.8106 4.5538 4.8106h3.9133c1.167 0 2.5969-3.3216 2.5969-3.3216s2.145 3.3216 4.4029 3.3216h6.3221c1.3171 0 4.7039-1.1454 6.4726-6.8345 5.1551 0 15.655-0.0378 15.655-0.0378s0.45158 2.6344 1.0913 3.7798c0.6021 1.1454 1.2418 3.1303 3.1607 3.1303h4.9677c1.0913 0 2.0321-1.1454 2.7095-2.4817 0.67736-1.3741 1.5053-6.5665 0.45158-11.415" fill="#434342"/>
         <path d="m69.472 42.369c0 4.6697-2.5686 8.4739-5.7329 8.4739s-5.7333-3.8042-5.7333-8.4739c0-4.6701 2.569-8.4739 5.7333-8.4739 3.2011 0 5.7329 3.8038 5.7329 8.4739" fill="#fff"/>
         <path d="m65.425 42.349c0 1.32-0.6226 2.3933-1.349 2.3933-0.72637 0-1.349-1.0316-1.349-2.3933 0-1.3205 0.6226-2.3521 1.349-2.3521 0.72637 0 1.349 1.0316 1.349 2.3521" fill="#434342"/>
         <path d="m98.453 42.934c0.18459 4.293-0.84913 7.8329-2.3259 7.9082-1.4768 0.07532-2.8427-3.3892-3.0273-7.6822s0.8495-7.8329 2.3263-7.9082c1.4768-0.03766 2.8055 3.3892 3.027 7.6822" fill="#fff"/>
         <path d="m96.448 43.349c0.03568 1.1292-0.21194 2.0326-0.56516 2.0703-0.35322 0.03802-0.70645-0.90302-0.7771-1.995-0.03497-1.1292 0.21194-2.0326 0.56516-2.0703 0.35322-0.03726 0.70645 0.90377 0.7771 1.995" fill="#434342"/>
         <path d="m7.0273 45.42h50.758s1.6519-2.9048 2.3277-6.6398c0.67577-3.7343 2.7406-9.8083 5.4813-9.8083 1.8771 0 3.529 1.5848 4.5052 6.6398 1.4642 3.2816 1.6143 6.5636 1.2389 9.8083h18.021s1.5017-1.094 2.0649-4.3006c0.56314-3.2066 2.5905-10.789 4.8055-10.639 2.215 0.15128 4.1297 4.3009 3.0034 8.8652 0.93858-1.509 1.0887-7.469-2.0649-11.317-3.1536-3.8852-5.0683-8.978-6.8704-12.411-1.8021-3.4333-4.3925-8.2993-6.4949-10.676-2.0649-2.377-6.3823-4.9419-21.625-4.9419-15.242 0-22.376 0.67866-25.417 1.5467-3.0034 0.82956-8.6349 2.0748-18.133 15.467-4.1297 1.8108-6.7202 3.5084-8.4847 6.6395-1.8021 3.1685-4.5427 7.2808-4.6929 9.7702-0.11263 2.4521-0.22526 8.5634 1.5768 11.997" fill="#d8e3f5"/>
         <path d="m50.626 29.428c-2.395 0.92226-4.8275 0.20049-5.4263-1.644-0.59876-1.8445 0.82329-4.09 3.1809-5.0123 2.395-0.92226 4.8275-0.20049 5.4263 1.644 0.63618 1.8445-0.78587 4.09-3.1809 5.0123m-37.497-2.3257c-0.71103 1.6841-2.1705 2.6465-3.2558 2.1252-1.1227-0.52128-1.4221-2.3257-0.74845-4.0499 0.71103-1.6841 2.1705-2.6465 3.2558-2.1252 1.0853 0.56137 1.4221 2.3658 0.74845 4.0499" fill="#434342"/>
         <path d="m13.094 26.128c-0.6006 1.3358-1.8018 2.0609-2.7027 1.6411-0.93844-0.41982-1.2387-1.8319-0.63814-3.1677 0.6006-1.3358 1.8018-2.0609 2.7027-1.6411 0.93844 0.41982 1.2387 1.7938 0.63814 3.1677m38.025 2.0227c-2.027 0.7633-4.0916 0.1145-4.6171-1.3739-0.52552-1.4884 0.67567-3.3204 2.7027-4.0837 2.027-0.7633 4.0916-0.1145 4.6171 1.3739 0.56306 1.5266-0.67567 3.3585-2.7027 4.0837" fill="#fff"/>
         <path d="m54.708 24.359-0.03747-0.2666c0.07494-0.03808 6.7074-1.333 7.9064-2.3993l0.14988 0.19042c-1.2366 1.1045-7.7566 2.3993-8.0189 2.4755zm-40.544 0.72361h32.675v-0.38085h-32.675z" fill="#434342"/>
         <path d="m53.947 32.172c-0.10534-1.1014-1.4045-1.8363-2.9143-1.6322-1.4747 0.20403-2.5983 1.2654-2.4578 2.3672 0.10534 1.1014 1.4045 1.8363 2.9143 1.6322 1.4747-0.20403 2.5983-1.2654 2.4578-2.3672" fill="#bcccea"/>
         <path d="m8.0602 31.442c-0.60129 0-1.0898 0.63436-1.0898 1.467 0 0.8326 0.48855 1.4666 1.0898 1.4666 0.60129 0 1.0898-0.63397 1.0898-1.4666 0-0.8326-0.52613-1.467-1.0898-1.467m0 3.1318c-0.71404 0-1.3153-0.75291-1.3153-1.6648 0-0.9123 0.60129-1.6652 1.3153-1.6652s1.3153 0.75291 1.3153 1.6652c0 0.9119-0.60129 1.6648-1.3153 1.6648m44.571-3.8058c-0.11274 0-0.1879 0-0.26307 0.03925-1.0147 0.11934-1.7287 0.9912-1.6536 1.9035 0.03758 0.43612 0.30065 0.8326 0.67646 1.0701 0.37581 0.27793 0.86436 0.39648 1.3529 0.31758 1.0147-0.11934 1.7287-0.9912 1.6536-1.9035-0.03758-0.43573-0.30065-0.83221-0.67646-1.0701-0.33823-0.23789-0.71404-0.35683-1.0898-0.35683m-0.15032 3.6076c-0.45097 0-0.86436-0.11855-1.2402-0.39648-0.45097-0.31679-0.71404-0.79296-0.75162-1.2683-0.11274-1.0705 0.71404-2.022 1.879-2.1806 0.52613-0.0793 1.0898 0.03965 1.5032 0.35683 0.45097 0.31679 0.71404 0.79296 0.75162 1.2687 0.11274 1.0705-0.71404 2.0216-1.879 2.1806-0.07516 0.03925-0.1879 0.03925-0.26307 0.03925" fill="#434342"/>
         <path d="m8.7683 33.218c0-1.1207-0.44263-2.0339-1.0117-2.0339s-1.0117 0.9132-1.0117 2.0339c0 1.1207 0.44263 2.0335 1.0117 2.0335 0.53748 0 1.0117-0.87127 1.0117-2.0335" fill="#bcccea"/>
         <path d="m63.043 16.672s2.7004-9.0767 3.488-11.128c0.7876-2.0508 1.9878-4.3295 4.088-4.5574 0.67509-0.075956 1.8002-0.18989 3.0754-0.26585-2.9629-0.45574-6.8259-0.72158-12.002-0.72158-15.227 0-22.353 0.6836-25.391 1.5191-0.63758 0.18989-1.3877 0.37978-2.2878 0.6836-1.9503 1.0254-3.938 2.2787-5.5132 3.7978-5.4007 5.089-9.6013 11.128-9.6013 11.128zm20.815 6.4562c-0.26253 0-0.45006 0.18989-0.45006 0.45574s0.18752 0.45574 0.45006 0.45574h2.4753c0.26254 0 0.45006-0.18989 0.45006-0.45574s-0.18752-0.45574-0.45006-0.45574zm2.4753 1.1773h-2.4753c-0.37505 0-0.67509-0.30382-0.67509-0.6836s0.30004-0.6836 0.67509-0.6836h2.4753c0.37505 0 0.67509 0.30382 0.67509 0.6836 0 0.3418-0.30004 0.6836-0.67509 0.6836zm-39.493 13.71s-0.30004 3.9117-2.5878 4.4054c-2.9254 0.6836-11.176 0.91147-19.615 0.91147-8.4011 0-14.214 0.49371-15.227-1.5191-1.0126-2.0128-0.52507-3.3421-0.52507-3.3421zm-30.979-8.659c-0.30004 0-0.52507 0.26585-0.52507 0.53169 0 0.30382 0.26254 0.53169 0.52507 0.53169h8.3261l0.18752-1.1014c0.0375 0.03798-8.5136 0.03798-8.5136 0.03798zm8.5511 1.3292h-8.5511c-0.45006 0-0.7876-0.3418-0.7876-0.79754s0.33754-0.79754 0.7876-0.79754h8.8512zm4.9131-0.26585h9.5262c0.30004 0 0.52507-0.26584 0.52507-0.53169 0-0.30382-0.26253-0.53169-0.52507-0.53169h-9.3387zm9.4887 0.26585h-9.8263l0.30004-1.5951h9.5262c0.45006 0 0.7876 0.3418 0.7876 0.79754 0 0.41776-0.33754 0.79754-0.7876 0.79754zm-11.739-2.5065c-0.82511 0-1.5752 0.72158-1.7252 1.5951-0.03751 0.45574 0.07501 0.87349 0.30004 1.1773 0.26254 0.26584 0.60008 0.45574 0.97513 0.45574 0.82511 0 1.5752-0.72158 1.7252-1.5951 0.0375-0.45574-0.07501-0.87349-0.30004-1.1773-0.22503-0.30382-0.60008-0.45574-0.97513-0.45574zm-0.41255 3.494c-0.45006 0-0.86261-0.18989-1.1627-0.53169-0.30004-0.37978-0.45006-0.83552-0.37505-1.3672 0.11252-1.0254 0.97513-1.8229 1.9503-1.8229 0.45006 0 0.86261 0.18989 1.1627 0.53169 0.30004 0.37978 0.45006 0.83551 0.37505 1.3672-0.15002 0.94945-0.97513 1.8229-1.9503 1.8229z" fill="#434342"/>
         <path d="m27.205 22.422-0.22588-0.11461c0.03765-0.0382 1.3929-2.9035 5.0447-5.0047l0.11294 0.22922c-3.5388 2.063-4.8941 4.8519-4.9318 4.8901m54.701 20.286c-0.30118 0-0.67765 0-1.0541-0.0382-0.41412-0.0382-0.86589-0.0382-1.3177-0.0382h-8.9973v-0.26744h8.9973c0.48941 0 0.90353 0.0382 1.3557 0.0382 2.7479 0.11461 4.1412 0.11461 5.5714-4.126l0.22588 0.07641c-1.3177 3.8968-2.6353 4.3553-4.7812 4.3553m-9.9765-22.005v-0.26743c0.75294-0.0382 18.372-0.53486 19.125-0.42024l-0.03802 0.26743c-0.60236-0.11461-12.762 0.22922-19.087 0.42024m-6.0985-3.935 23.19-0.68767s-2.56-5.425-4.0283-7.9464c-1.4679-2.5597-4.7435-5.9216-9.2236-6.0744-4.4796-0.19102-5.6847 0.68767-6.4377 2.5979-0.7153 1.9484-3.5008 12.111-3.5008 12.111" fill="#434342"/>
         <path d="m35.643 18.191c-2.4161 1.4488-3.6932 3.2864-4.1764 4.0638-0.10355 0.17669-0.34516 0.14135-0.41418-0.03534-0.03452-0.07068-0.03452-0.14135 0-0.21202 0.24161-0.49472 1.4842-2.615 4.3144-4.3465 0.10355-0.07068 0.27612-0.03534 0.31064 0.10601l0.03451 0.10601c0.06903 0.14135 0.03452 0.2827-0.06903 0.31804" fill="#bcccea"/>
         <path d="m79.26 4.095 3.8931 11.497 4.5294-0.15432c0 0.03858-4.1176-10.301-8.4225-11.343m-48.027 1.7747s-4.8663 4.3982-6.738 7.0602c-1.8717 2.662-0.48663 2.5077 1.385 2.5077 7.1872-4.2824 12.69-7.4846 23.733-13.04 1.0107-0.50154 1.4599-1.0417 0.29946-1.0417-9.0963 0-14.973 0.69445-18.679 4.5139" fill="#fff"/>
         <path d="m59.93 38.668c0.68032-3.7762 2.7591-9.9184 5.556-9.9184 1.8898 0 3.5528 1.6022 4.5355 6.7144 0.71812 1.6018 1.3981 4.4247 1.587 6.0651 1.3229 0 9.1848 0.45777 11.868 0.45777-0.0378 0.45777-11.414 0.26703-12.057 0.26703 0.03817 1.2589-0.03742 1.9074-0.18898 3.1662h18.18s1.5118-1.1063 2.0788-4.3488c0.52876-3.2044 2.6457-10.91 4.8753-10.757 2.2303 0.15221 4.1575 4.3484 3.0618 8.9647 0.9449-1.5644 0.37796-8.5454-3.6288-11.597-2.4186-1.8311-3.5146-5.7603-4.6485-7.744-0.15118-0.26703-13.116 0.26703-17.915 0.38148-1.2476 0.03815-0.9071-0.87739 2.0032-0.95369 5.0268-0.11444 13.229-0.38148 15.421-0.38148-1.8142-3.4714-6.841-12.779-8.5419-14.267-2.0036-1.7548-12.208-5.3025-14.362 0.53407-1.5118 4.0436-3.2126 10.529-5.1024 16.365-1.5874 1.8311-3.0615 2.8229-3.9308 7.7821-0.79371 4.387-1.8524 8.3162-2.6083 10.834-0.52876 1.7926-2.1162 3.0896-3.9682 3.2425-4.0442 0.34295-12.51 0.83886-27.969 0.99146-16.895 0.15297-18.331-0.76295-18.407-0.68666-1.1339 2.0218 0.68032 1.6026 0.68032 1.6026h51.138s1.663-2.9377 2.3433-6.7144" fill="#bcccea"/>
         <path d="m65.425 16.948 23.607-0.69607s-2.606-5.4912-4.1009-8.0434c-1.4942-2.5909-4.8283-5.9939-9.3891-6.1486-4.56-0.19335-5.7864 0.69607-6.5528 2.6296-0.72852 1.9722-3.564 12.259-3.564 12.259" fill="#434342"/>
         <path d="m78.915 4.0675 3.7411 11.524 4.3527-0.15469c0 0.03867-3.957-10.326-8.0938-11.37" fill="#fff"/>
        </g>
        <g transform="translate(11.364)">
         <g id="icon-/-checkmark-/-empty" transform="translate(.167 .73027)">
          <mask id="mask-2" fill="#ffffff">
           <use width="100%" height="100%" xlink:href="#path-1"/>
          </mask>
          <g id="color-/-white" fill="#fff" mask="url(#mask-2)">
           <g id="white" transform="translate(-4.9248,-8.7723)">
            <rect y="33.955" width="108.96" height="71.928" stroke-width=".8242"/>
           </g>
          </g>
         </g>
        </g>
       </g>
      </g>
     </g>
     <path d="m22.341 45.449v-11.689h21.667c2.7147 0 4.915-1.8752 4.915-4.1893v-21.7c0-2.3137-2.2002-4.1893-4.915-4.1893h-35.016c-2.7153 0-4.9155 1.8756-4.9155 4.1893v21.7c0 2.3141 2.2002 4.1893 4.9155 4.1893h6.0642z" stroke="#3374db" stroke-linecap="round" stroke-linejoin="round" stroke-width=".99554"/>
     <g id="icon-/-action-/-search" transform="translate(15,8)">
      <mask id="mask-4" fill="#ffffff">
       <use width="100%" height="100%" xlink:href="#path-3"/>
      </mask>
      <use id="Mask" width="100%" height="100%" fill="#000000" xlink:href="#path-3"/>
      <g id="color-/-blue-primary" fill="#3374db" mask="url(#mask-4)">
       <g id="Rectangle" transform="translate(-2,-2)">
        <rect width="24" height="24"/>
       </g>
      </g>
     </g>
    </g>
   </g>
  </g>
 </g>
</svg>
